# xmcd
#
# Track frame offsets:
#	150
#	22107
#	38789
#	55915
#	74721
#	90490
#	112447
#
# Disc length: 1720 seconds
#
# Revision: 0
# Processed by: cddbd v1.5.2PL0 Copyright (c) Steve Scherf et al.
# Submitted via: EZCDAudioConverter 3.0.3.2
#
DISCID=6606b607
DTITLE=V.O.S - V.O.S - RE: Union, The Real
DYEAR=20160118
DGENRE=K-Pop
TTITLE0=그 날 (TITLE)
TTITLE1=그 사람이 너니까 (TITLE)
TTITLE2=귀향 (歸鄕)
TTITLE3=울었다
TTITLE4=I Know
TTITLE5=그 날(inst.)
TTITLE6=그 사람이 너니까 (inst.)
EXTD=
EXTT0=
EXTT1=
EXTT2=
EXTT3=
EXTT4=
EXTT5=
EXTT6=
PLAYORDER=
